<?xml version="1.0" encoding="UTF-8"?>
<!DOCTYPE svg PUBLIC "-//W3C//DTD SVG 1.1//EN" "http://www.w3.org/Graphics/SVG/1.1/DTD/svg11.dtd">
<!-- Creator: CorelDRAW -->
<svg xmlns="http://www.w3.org/2000/svg" xml:space="preserve" width="390.717mm" height="68.529mm" version="1.1" style="shape-rendering:geometricPrecision; text-rendering:geometricPrecision; image-rendering:optimizeQuality; fill-rule:evenodd; clip-rule:evenodd"
viewBox="0 0 57148.26 10023.41"
 xmlns:xlink="http://www.w3.org/1999/xlink"
 xmlns:xodm="http://www.corel.com/coreldraw/odm/2003">
 <defs>
  <style type="text/css">
   <![CDATA[
    .fil4 {fill:#16C5B4}
    .fil3 {fill:#AA8FE3}
    .fil2 {fill:#F9C33D}
    .fil5 {fill:#FB6A67}
    .fil1 {fill:#2B2B2A;fill-rule:nonzero}
    .fil0 {fill:#2B2B2A;fill-rule:nonzero}
   ]]>
  </style>
 </defs>
 <g id="Layer_x0020_1">
  <metadata id="CorelCorpID_0Corel-Layer"/>
  <path class="fil0" d="M51631.81 5006.1l1414.78 0c0,-375.61 0,-872.22 0,-1997.13l4042.23 0 0 -1331.55 -5457.01 0 0 3328.69z"/>
  <path class="fil0" d="M53046.59 6537c0,385.6 0,909.02 0,2012.19l4101.67 0 0 1331.55 -5516.45 0 0 -3343.74 1414.78 0z"/>
  <polygon class="fil1" points="48433.7,1677.41 48433.7,7479.19 44332.03,1677.41 42893.47,1677.41 42893.47,9880.74 44308.25,9880.74 44308.25,4078.96 48409.92,9880.74 49848.47,9880.74 49848.47,1677.41 "/>
  <polygon class="fil1" points="27665.46,8549.19 27665.46,1677.41 26250.68,1677.41 26250.68,9880.74 31410.46,9880.74 31410.46,8549.19 "/>
  <path class="fil1" d="M21411.9 10023.41c1533.66,0 2841.45,-713.34 3602.34,-1842.78l-1212.67 -749c-511.21,749 -1379.11,1224.55 -2389.67,1224.55 -1616.89,0 -2853.33,-1236.44 -2853.33,-2877.11 0,-1640.66 1236.44,-2877.11 2853.33,-2877.11 1010.56,0 1878.46,475.55 2389.67,1224.56l1212.67 -749.01c-760.89,-1129.45 -2068.67,-1842.77 -3602.34,-1842.77 -2449.11,0 -4303.78,1830.89 -4303.78,4244.32 0,2413.45 1854.67,4244.34 4303.78,4244.34z"/>
  <polygon class="fil1" points="14349.89,9880.74 15764.67,9880.74 15764.67,3452.4 14349.89,3452.4 "/>
  <path class="fil1" d="M10414.67 1677.41l-3483.45 0 0 8203.33 1414.78 0 0 -2865.22 2068.67 0c1557.45,0 2746.33,-1141.34 2746.33,-2663.11 0,-1533.68 -1188.89,-2675 -2746.33,-2675zm-23.78 4006.56l-2044.89 0 0 -2675 2044.89 0c749,0 1319.66,570.67 1319.66,1343.45 0,760.89 -570.67,1331.55 -1319.66,1331.55z"/>
  <path class="fil1" d="M1414.78 8549.19c0,-4421.72 0,-1172.11 0,-5540.22l4042.23 0 0 -1331.55 -5457.01 0 0 8203.33 5516.45 0 0 -1331.55 -4101.67 0z"/>
  <rect class="fil2" x="14889.79" y="-0.01" width="311.03" height="1413.78" rx="1413.78" ry="1447.32"/>
  <rect class="fil2" transform="matrix(0.690171 0.637815 -6.52946E-001 0.706545 16689 549.147)" width="330.97" height="1469.54" rx="1504.41" ry="1504.41"/>
  <rect class="fil2" transform="matrix(-6.90171E-001 0.637815 0.652946 0.706545 13399.8 477.416)" width="330.97" height="1469.54" rx="1504.41" ry="1504.41"/>
  <path class="fil3" d="M1618.72 5113.29l2102.53 0c366.19,0 665.8,299.61 665.8,665.81l0 0c0,366.19 -299.61,665.78 -665.8,665.78l-2102.53 0 0 -1331.6z"/>
  <polygon class="fil4" points="54808.54,5246.21 54804.36,4807.68 55379.23,5317.25 55848.21,5726.08 55323.67,6220.5 54822.28,6691.66 54818.34,6276.89 51631.81,6276.89 51631.81,5246.21 "/>
  <polygon class="fil2" points="34803.79,5770.03 34850.47,5852.01 37033.94,9684.85 37814.42,8338.33 37173.15,7200.11 38522.89,7200.1 39359.09,5757.45 "/>
  <polygon class="fil5" points="39557.77,5875.8 39510.03,5957.18 37278.08,9761.98 38834.43,9766.41 39500.82,8642.7 40174.35,9812.38 41841.82,9817.12 "/>
  <polygon class="fil4" points="37079.25,1642.97 37031.51,1724.35 34799.56,5529.15 36355.91,5533.58 37022.29,4409.87 37695.83,5579.55 39363.3,5584.29 "/>
  <polygon class="fil3" points="34548.66,5875.8 34500.91,5957.18 32268.97,9761.98 33825.33,9766.41 34491.7,8642.7 35165.24,9812.38 36832.7,9817.12 "/>
  <rect class="fil5" x="14340.18" y="1742.14" width="1414.82" height="1414.82" rx="1129.54" ry="1462.65"/>
 </g>
</svg>
